<?xml version="1.0" encoding="UTF-8"?>
<svg id="Layer_2" xmlns="http://www.w3.org/2000/svg" version="1.1" viewBox="0 0 511.1 121.3">
  <!-- Generator: Adobe Illustrator 29.5.1, SVG Export Plug-In . SVG Version: 2.1.0 Build 141)  -->
  <defs>
    <style>
      .st0 {
        font-family: Helvetica-Bold, Helvetica;
        font-weight: 700;
      }

      .st0, .st1, .st2, .st3 {
        isolation: isolate;
      }

      .st0, .st2, .st3 {
        fill: #231f20;
        font-size: 9px;
      }

      .st4 {
        stroke-dasharray: 1.5 1;
        stroke-width: .5px;
      }

      .st4, .st5 {
        fill: none;
        stroke: #231f20;
      }

      .st6 {
        fill: #e27d38;
      }

      .st7 {
        fill: #f6c445;
      }

      .st2 {
        font-family: Helvetica-Light, Helvetica;
        font-weight: 300;
      }

      .st3 {
        font-family: Helvetica, Helvetica;
      }
    </style>
  </defs>
  <g id="Layer_1-2">
    <line class="st4" x1="186.9" y1="28.8" x2="186.9" y2="88.8"/>
    <rect class="st7" x="91.7" y="64.8" width="129.6" height="12"/>
    <line class="st4" x1="282.9" y1="28.8" x2="282.9" y2="88.8"/>
    <rect class="st7" x="91.6" y="40.8" width="160" height="12"/>
    <line class="st5" x1="91.1" y1="29" x2="91.1" y2="89"/>
    <line class="st4" x1="378.9" y1="28.8" x2="378.9" y2="88.8"/>
    <g class="st1">
      <text class="st2" transform="translate(65.3 49.5)"><tspan x="0" y="0">2013</tspan></text>
    </g>
    <g class="st1">
      <text class="st2" transform="translate(65.3 73.5)"><tspan x="0" y="0">2017</tspan></text>
    </g>
    <g class="st1">
      <text class="st2" transform="translate(88.1 100.9)"><tspan x="0" y="0">0</tspan></text>
    </g>
    <g class="st1">
      <text class="st2" transform="translate(173.4 100.7)"><tspan x="0" y="0">60 000</tspan></text>
    </g>
    <g class="st1">
      <text class="st2" transform="translate(266.4 100.7)"><tspan x="0" y="0">120 000</tspan></text>
    </g>
    <g class="st1">
      <text class="st2" transform="translate(362.9 100.7)"><tspan x="0" y="0">180 000</tspan></text>
    </g>
    <g class="st1">
      <text class="st2" transform="translate(255.2 50.2)"><tspan x="0" y="0">103 404</tspan></text>
    </g>
    <g class="st1">
      <text class="st2" transform="translate(372 74.2)"><tspan x="0" y="0">172 695</tspan></text>
    </g>
    <g class="st1">
      <text class="st0" transform="translate(0 7.7)"><tspan x="0" y="0">T</tspan></text>
      <text class="st0" transform="translate(4.8 7.7)"><tspan x="0" y="0">axi and Rideshare </tspan></text>
      <text class="st0" transform="translate(84.4 7.7)"><tspan x="0" y="0">V</tspan></text>
      <text class="st0" transform="translate(89.9 7.7)"><tspan x="0" y="0">ehicle Hours in Manhattan</tspan></text>
    </g>
    <g class="st1">
      <text class="st3" transform="translate(159.9 117)"><tspan x="0" y="0">A</tspan></text>
      <text class="st3" transform="translate(165.8 117)"><tspan x="0" y="0">verage </tspan></text>
      <text class="st3" transform="translate(195.8 117)"><tspan x="0" y="0">V</tspan></text>
      <text class="st3" transform="translate(201.3 117)"><tspan x="0" y="0">ehicle Hour Per Day (Hours)</tspan></text>
    </g>
    <rect class="st6" x="221.3" y="64.8" width="146.6" height="12"/>
  </g>
</svg>