<?xml version="1.0" encoding="UTF-8"?>
<svg id="Layer_2" xmlns="http://www.w3.org/2000/svg" version="1.1" viewBox="0 0 225.6 287.9">
  <!-- Generator: Adobe Illustrator 29.5.1, SVG Export Plug-In . SVG Version: 2.1.0 Build 141)  -->
  <defs>
    <style>
      .st0 {
        font-family: Helvetica-Bold, Helvetica;
        font-weight: 700;
      }

      .st0, .st1, .st2 {
        isolation: isolate;
      }

      .st0, .st2 {
        fill: #231f20;
        font-size: 9px;
      }

      .st3 {
        fill: #f4c346;
      }

      .st2 {
        font-family: Helvetica, Helvetica;
      }
    </style>
  </defs>
  <g id="Layer_1-2">
    <rect class="st3" x="108.5" y="157.9" width="61.4" height="108.1"/>
    <g class="st1">
      <text class="st0" transform="translate(82.9 283.6)"><tspan x="0" y="0">Distribution of commuters</tspan></text>
    </g>
    <rect class="st3" x="108.5" y="107.1" width="61.4" height="48.9"/>
    <rect class="st3" x="108.5" y="49.5" width="61.4" height="12.5"/>
    <rect class="st3" x="108.5" y="63.9" width="61.4" height="41.1"/>
    <rect class="st3" x="108.5" y="35.8" width="61.4" height="11.7"/>
    <rect class="st3" x="108.5" y="27" width="61.4" height="6.8"/>
    <g class="st1">
      <text class="st2" transform="translate(32.2 214.9)"><tspan x="0" y="0">Inner New Jersy</tspan></text>
    </g>
    <g class="st1">
      <text class="st2" transform="translate(50.7 135.3)"><tspan x="0" y="0">Long Island</tspan></text>
    </g>
    <g class="st1">
      <text class="st2" transform="translate(12.9 86.3)"><tspan x="0" y="0">Lower Hudson </tspan></text>
      <text class="st2" transform="translate(73.4 86.3)"><tspan x="0" y="0">V</tspan></text>
      <text class="st2" transform="translate(78.8 86.3)"><tspan x="0" y="0">alley</tspan></text>
    </g>
    <g class="st1">
      <text class="st2" transform="translate(30.3 60.7)"><tspan x="0" y="0">Outer New Jersy</tspan></text>
    </g>
    <g class="st1">
      <text class="st2" transform="translate(49.8 46.8)"><tspan x="0" y="0">Connecticut</tspan></text>
    </g>
    <g class="st1">
      <text class="st2" transform="translate(22.9 33.3)"><tspan x="0" y="0">Mid Hudson </tspan></text>
      <text class="st2" transform="translate(73.4 33.3)"><tspan x="0" y="0">V</tspan></text>
      <text class="st2" transform="translate(78.8 33.3)"><tspan x="0" y="0">alley</tspan></text>
    </g>
    <g class="st1">
      <text class="st2" transform="translate(181.1 215.5)"><tspan x="0" y="0">308k</tspan></text>
    </g>
    <g class="st1">
      <text class="st2" transform="translate(181.1 135.8)"><tspan x="0" y="0">141k</tspan></text>
    </g>
    <g class="st1">
      <text class="st2" transform="translate(181.1 86.8)"><tspan x="0" y="0">1</tspan></text>
      <text class="st2" transform="translate(185.5 86.8)"><tspan x="0" y="0">19k</tspan></text>
    </g>
    <g class="st1">
      <text class="st2" transform="translate(181.1 61.4)"><tspan x="0" y="0">38k</tspan></text>
    </g>
    <g class="st1">
      <text class="st2" transform="translate(181.1 47.3)"><tspan x="0" y="0">36k</tspan></text>
    </g>
    <g class="st1">
      <text class="st2" transform="translate(181.1 34.3)"><tspan x="0" y="0">22k</tspan></text>
    </g>
  </g>
</svg>