<svg id="Layer_1" data-name="Layer 1" xmlns="http://www.w3.org/2000/svg" viewBox="0 0 964.89 1692.7"><path d="M42.08,1405.62a32.23,32.23,0,0,1,3.77,0c33.5,4.62,67,2.09,100.34-1.12a750.16,750.16,0,0,0,79.7-11.67c66.55-13.75,128-39.07,179.7-84.62a282,282,0,0,0,48.5-56.09c11.69-17.62,12.79-36.88,7-56.29-3.52-11.89-9.58-23.08-15-34.33-1.18-2.44-4.31-4.72-7-5.54-53.71-16.3-107.49-32.36-161.24-48.55-1.14-.34-2-1.52-3-2.3,1.22-1.27,2.2-3.17,3.68-3.71,15.41-5.64,30.93-11,46.37-16.55,31.2-11.24,62.33-22.68,93.59-33.76,8.74-3.09,14.66-8.9,19.67-16.36,24.53-36.47,56.29-64.62,96.68-82.44,39.9-17.61,81.79-24.72,124.78-17.34,63.59,10.93,109.09,46.57,134.81,106.13,3.88,9,5,19.15,7.45,28.76,4.58,18,14.88,32.94,26.25,47.17C854,1149.4,885,1176.6,915.92,1203.8c15.13,13.29,30.42,26.5,38.44,45.63A221,221,0,0,1,964.48,1279c1.1,4.24-.26,9.29-1.12,13.86-21.4,113.81-75.87,208.74-163.79,284-66.11,56.63-142.48,92.42-228.13,108-217.13,39.44-434.31-73.61-527.11-274.17C43.63,1409.2,43,1407.65,42.08,1405.62Zm608.21-324.06a36.25,36.25,0,1,0-36.35,36.19A36.31,36.31,0,0,0,650.29,1081.56Z"/><path d="M32.35,1182.4c29.88,5,59.63,5.55,89.11-1-.72,25-1.42,49.71-2.15,75.12-26.81,3.62-54.15,5.9-81.84,5.34,1,8.7,1.79,17,3.11,25.27.21,1.32,2.73,3.14,4.27,3.23,10.44.66,20.95,1.72,31.34,1.1,14.91-.88,29.74-3.09,44.57-4.72,3.4,24.32,6.87,49.26,10.47,75.08-5.69.81-11.8,2-18,2.5-27.78,2.4-55.47.45-83.16-1.89-3.44-.29-3.83-2.48-4.37-4.81-5.23-22.76-11.33-45.36-15.41-68.33C.76,1235.48-1.48,1181.07.85,1126.51c3.56-83.42,18.25-164.93,43.09-244.64,21.86-70.15,52-136.8,84.79-202.38,14-27.89,27.93-55.9,39.47-84.83,17.25-43.25,26.63-88.77,33.61-134.73,4.88-32.17,7.8-64.47,6.22-97.05-.9-18.51-4.72-36.26-13.5-52.79-12.34-23.26-31.55-35-57.91-35.5a108.93,108.93,0,0,0-44.9,8.48c-8,3.38-16.33,6.7-18.8,16.8C58.28,296,47.08,287.8,38,276.51c-13.1-16.35-19.23-35.58-21.38-56-3.87-36.59-1-72.58,13.16-107,17.68-43,49.44-72.53,91-91.91,54-25.23,109.38-29.13,165.68-8C317,25.13,339.55,45.1,353.85,75.09c21.35,44.8,38.48,90.81,46.48,140,5.13,31.52,5.57,63.24,5,95.05-.2,11.33,0,22.66,0,34.64-50.42,6.82-99.41,10.25-148,.07,0,9.07-.11,18,.17,27,0,.93,2.34,2.37,3.74,2.58,16.72,2.49,33.39,5.74,50.21,6.93,28.82,2,57.57.1,86.08-4.8,1.18-.2,2.4-.15,4.83-.27-3.53,28.48-7,56.58-10.55,85.07-48.3,3.5-95.76,7.65-143.86.67-1.85,8.65-3.76,17.6-5.8,27.13,48.08,11.56,95.7,8.38,144.42,1.21-4.95,21.21-9.67,41.54-14.46,61.84-1.05,4.41-2.69,8.7-3.48,13.14-.69,4-2.6,5.4-6.49,5.79-38.8,3.87-77.64,6.18-116.61,3.16-8.83-.69-17.6-2.11-26.58-3.22-3.71,10.41-7.41,20.76-11.41,32,50.52,5,100.18,7.25,150.34-3a40.63,40.63,0,0,1-1.27,5c-11,27.89-22,55.74-32.94,83.65-1.26,3.24-3,4.29-6.52,4.43-38.62,1.5-77.18,1-115.6-3.47-10.2-1.18-20.32-3.2-30.41-5.21-3.14-.63-4.67-.07-6,2.82-4.07,8.66-8.41,17.2-12.92,26.34,50.68,12.92,101.54,15.75,153.61,9.8-.93,1.91-1.53,3.31-2.27,4.64-13.88,24.81-27.73,49.65-41.77,74.37-1,1.8-3.38,3.78-5.29,4-41.47,4.46-82.9,6-124-3.51-7.08-1.65-14-4.17-21.25-6.38-3.57,8.81-7.09,17.64-10.73,26.42-1.28,3.08.44,4,2.86,4.77a298.64,298.64,0,0,0,65.34,14c23.42,2.27,46.73,1.78,69.84-3.06a15.65,15.65,0,0,1,2.55,0c-1.1,2.11-2,3.77-2.84,5.43Q218.21,882.42,198,920.86c-.81,1.54-2.72,3.41-4.24,3.53-35.59,2.84-71.15,3.54-106.45-3.19a123.67,123.67,0,0,1-14.13-3.78c-2.82-.89-3.91-.38-4.63,2.66-2.18,9.27-4.74,18.45-7.35,28.45,40.49,6.19,80.78,12.08,122.34,6.68-.34,1.09-.6,2.14-1,3.15q-13,34.78-26,69.57c-.93,2.5-1.62,4.59-5.07,4.91-33.76,3.12-67.5,6-101.3.48-1.88-.3-3.75-.73-6.46-1.27-1.16,6.39-2.71,12.63-3.32,19-1,10.48-.75,10.49,9.8,12.66a206.39,206.39,0,0,0,90.86-1.19c1.13-.27,2.27-.47,3.54-.73-3.92,15.91-8.05,31.35-11.46,47-2.75,12.59-4.85,25.35-6.78,38.11-.61,4-2,5.54-6,6.14a349.94,349.94,0,0,1-82,2.27c-1.9-.17-3.82-.24-6.08-.37Z"/><path d="M821.6,423.46C764.38,411.12,708.77,396.65,656.74,369c-.7,2.68-1.4,5.08-1.94,7.52-1.32,5.95-2.22,12-4,17.84-1.07,3.52,0,4.95,2.87,6.52A417.58,417.58,0,0,0,738.54,435c24.14,6.86,48.65,12.42,74.41,18.92l-33.11,82.18c-51.67-18.31-102.4-35.4-149.7-62.81-4.09,7.86-8.3,15.95-12.87,24.75,45.55,30.14,96.05,48.36,148.45,63.08a34.06,34.06,0,0,1-1.76,4q-20.54,33.75-41.11,67.47c-1.51,2.49-3,3.78-6.28,2.57-43.17-15.79-85.86-32.62-125.28-56.68-3.11-1.9-6.15-3.92-9.43-6L562.2,600.3c23.15,11.53,45.54,23.71,68.77,34s47,18.43,70.76,27.6c-2.59,3.34-5.71,7.73-9.19,11.81-14.29,16.72-28.71,33.33-43,50-1.86,2.17-3.51,3.23-6.66,2-22.12-8.58-44.47-16.58-66.47-25.45a387.11,387.11,0,0,1-68.81-35.85l-20.43,25c41.3,28.69,86.76,47.91,135.88,60.9a54.54,54.54,0,0,1-3.69,4C599.53,771.7,579.67,789,560,806.53c-3.3,2.93-6.83,4.09-11,3.3-40.12-7.58-79.44-17.63-115.3-38.08-5.74-3.27-11.1-7.21-17.23-11.24-6.52,7.85-13.16,15.84-20.31,24.43,38,26.65,78.57,44.8,125.5,50.48-2.08,1.63-3.34,2.63-4.61,3.61-23.75,18.38-47.56,36.67-71.16,55.23-3.2,2.51-5.68,2.89-9.39,1.57-29.34-10.42-58.26-21.71-84.15-39.45-3-2.07-5.86-4.37-9.59-7.17l-20.35,25.28c29.6,18,59.38,34.13,93,46.36a35.06,35.06,0,0,0-4.26,2.79Q380.59,952,350.19,980.48c-2,1.85-3.55,3.54-6.73,2.2-22.53-9.52-45.11-18.92-65.19-33.23-1.69-1.2-3.33-2.48-5.7-4.26-5.07,7.27-10.19,14.32-14.86,21.66-.58.89.77,3.88,2,4.94a196.25,196.25,0,0,0,57.15,33.39l6.55,2.46c-1.31,1.59-2.33,2.88-3.4,4.12-15.49,18-31.08,35.91-46.38,54-2.7,3.2-5,4.15-8.83,2.54-20-8.24-40-16.29-60.06-24.45a40,40,0,0,1-4.06-2.33c3.51-9.75,6.9-19.42,10.47-29a1013,1013,0,0,1,49.44-111.89c3.88-7.49,9.81-13.95,15-20.71,31.63-41.08,62.82-82.52,95.19-123,18.95-23.7,39.35-46.31,59.95-68.61,25-27.05,46.56-56.61,66.73-87.26,29.66-45.07,57.15-91.42,80.75-140a242.14,242.14,0,0,0,19.87-61.53c4.29-22.88-3.5-41.18-22.36-54.74-21.06-15.14-44.91-19.06-70.15-17.28-3,.21-5.92.5-8.84,1-9.4,1.5-9.4,1.54-14.34-6.84C463.7,289.83,457.74,255.9,462.16,219c6.14-51.22,31.5-90.67,70.42-122.31,23.61-19.21,51.56-25.37,81.63-22.7,56.7,5,107.92,25.71,155.89,55.24,31,19.07,54.12,45.78,70.18,78.06,4.34,8.73,4.29,20,4.77,30.22,2.54,53-4.06,105.21-16.14,156.77C826.69,403.79,824.18,413.2,821.6,423.46Z"/><path d="M250.68,1095.67c-.46.65-1.56,2.14-2.57,3.69-11.64,17.81-23.37,35.56-34.8,53.49-2,3.1-3.63,4-7.08,2.7-10.79-4-21.67-7.63-33.53-11.77q9.39-37.65,18.35-73.61Z"/><path d="M168.64,1173.32l26,10.65c-10.61,26-21.15,51.9-31.19,76.56C161.06,1252.24,164.05,1195.09,168.64,1173.32Z"/></svg>